<?xml version="1.0" encoding="UTF-8" standalone="no"?>
<!-- Created with Inkscape (http://www.inkscape.org/) -->

<svg
   version="1.1"
   id="svg1754"
   xml:space="preserve"
   width="1056"
   height="816"
   viewBox="0 0 1056 816"
   sodipodi:docname="serendipia.svg"
   inkscape:version="1.1 (c68e22c387, 2021-05-23)"
   xmlns:inkscape="http://www.inkscape.org/namespaces/inkscape"
   xmlns:sodipodi="http://sodipodi.sourceforge.net/DTD/sodipodi-0.dtd"
   xmlns="http://www.w3.org/2000/svg"
   xmlns:svg="http://www.w3.org/2000/svg"><defs
     id="defs1758"><clipPath
       clipPathUnits="userSpaceOnUse"
       id="clipPath1778"><path
         d="M 0,0 H 793 V 613 H 0 Z"
         id="path1776" /></clipPath><clipPath
       clipPathUnits="userSpaceOnUse"
       id="clipPath1782"><path
         d="M 656,468 H 766 V 576 H 656 Z"
         id="path1780" /></clipPath><clipPath
       clipPathUnits="userSpaceOnUse"
       id="clipPath1786"><path
         d="m 755.664,551.688 c 17.125,-24.68 11.082,-57.95 -13.512,-74.364 -24.593,-16.41 -58.445,-9.769 -75.668,14.848 -17.222,24.613 -11.308,57.91 13.219,74.418 24.527,16.504 58.402,9.992 75.719,-14.563"
         id="path1784" /></clipPath><clipPath
       clipPathUnits="userSpaceOnUse"
       id="clipPath1790"><path
         d="M 0,0 H 793 V 613 H 0 Z"
         id="path1788" /></clipPath><clipPath
       clipPathUnits="userSpaceOnUse"
       id="clipPath1794"><path
         d="M 582,468 H 691 V 576 H 582 Z"
         id="path1792" /></clipPath><clipPath
       clipPathUnits="userSpaceOnUse"
       id="clipPath1798"><path
         d="m 681.07,551.461 c 17.125,-24.68 11.082,-57.949 -13.511,-74.359 -24.594,-16.414 -58.446,-9.774 -75.668,14.843 -17.223,24.614 -11.309,57.91 13.218,74.418 24.528,16.508 58.403,9.992 75.719,-14.558"
         id="path1796" /></clipPath><clipPath
       clipPathUnits="userSpaceOnUse"
       id="clipPath1802"><path
         d="M 0,0 H 793 V 613 H 0 Z"
         id="path1800" /></clipPath><clipPath
       clipPathUnits="userSpaceOnUse"
       id="clipPath1806"><path
         d="M 656,468 H 766 V 576 H 656 Z"
         id="path1804" /></clipPath><clipPath
       clipPathUnits="userSpaceOnUse"
       id="clipPath1810"><path
         d="m 755.664,551.688 c 17.125,-24.68 11.082,-57.95 -13.512,-74.364 -24.593,-16.41 -58.449,-9.769 -75.668,14.848 -17.222,24.613 -11.308,57.91 13.219,74.418 24.527,16.504 58.402,9.992 75.719,-14.563"
         id="path1808" /></clipPath><clipPath
       clipPathUnits="userSpaceOnUse"
       id="clipPath1814"><path
         d="M 0,0 H 793 V 613 H 0 Z"
         id="path1812" /></clipPath><clipPath
       clipPathUnits="userSpaceOnUse"
       id="clipPath1894"><path
         d="m 481,255 h 49 v 49 h -49 z"
         id="path1892" /></clipPath><clipPath
       clipPathUnits="userSpaceOnUse"
       id="clipPath1900"><path
         d="m 529.113,280.969 c 1.18,-13.242 -8.433,-24.715 -21.488,-25.641 -13.055,-0.926 -24.621,9.047 -25.852,22.285 -1.23,13.242 8.336,24.754 21.387,25.731 13.051,0.976 24.653,-8.953 25.934,-22.188"
         id="path1898" /></clipPath><clipPath
       clipPathUnits="userSpaceOnUse"
       id="clipPath1910"><path
         d="M 0,0 H 793 V 613 H 0 Z"
         id="path1908" /></clipPath><clipPath
       clipPathUnits="userSpaceOnUse"
       id="clipPath1922"><path
         d="m 452,271 h 49 v 49 h -49 z"
         id="path1920" /></clipPath><clipPath
       clipPathUnits="userSpaceOnUse"
       id="clipPath1928"><path
         d="m 500.371,297.227 c 1.184,-13.247 -8.43,-24.719 -21.484,-25.645 -13.059,-0.926 -24.625,9.047 -25.856,22.289 -1.23,13.238 8.34,24.75 21.387,25.727 13.051,0.976 24.656,-8.953 25.937,-22.188"
         id="path1926" /></clipPath><clipPath
       clipPathUnits="userSpaceOnUse"
       id="clipPath1938"><path
         d="M 0,0 H 793 V 613 H 0 Z"
         id="path1936" /></clipPath><clipPath
       clipPathUnits="userSpaceOnUse"
       id="clipPath1950"><path
         d="m 481,255 h 49 v 49 h -49 z"
         id="path1948" /></clipPath><clipPath
       clipPathUnits="userSpaceOnUse"
       id="clipPath1956"><path
         d="m 529.113,280.969 c 1.18,-13.242 -8.433,-24.715 -21.488,-25.641 -13.055,-0.926 -24.621,9.047 -25.852,22.285 -1.23,13.242 8.336,24.754 21.387,25.731 13.051,0.976 24.653,-8.953 25.934,-22.188"
         id="path1954" /></clipPath><clipPath
       clipPathUnits="userSpaceOnUse"
       id="clipPath1966"><path
         d="M 0,0 H 793 V 613 H 0 Z"
         id="path1964" /></clipPath><clipPath
       clipPathUnits="userSpaceOnUse"
       id="clipPath1984"><path
         d="M 0,0 H 793 V 613 H 0 Z"
         id="path1982" /></clipPath></defs><sodipodi:namedview
     id="namedview1756"
     pagecolor="#ffffff"
     bordercolor="#666666"
     borderopacity="1.0"
     inkscape:pageshadow="2"
     inkscape:pageopacity="0.0"
     inkscape:pagecheckerboard="0"
     showgrid="false"
     inkscape:zoom="0.33455882"
     inkscape:cx="757.71429"
     inkscape:cy="375.12088"
     inkscape:window-width="1366"
     inkscape:window-height="705"
     inkscape:window-x="-8"
     inkscape:window-y="-8"
     inkscape:window-maximized="1"
     inkscape:current-layer="layer3" /><g
     inkscape:groupmode="layer"
     id="layer3"
     inkscape:label="fondoo"><rect
       style="fill:#ffffff;fill-opacity:1;stroke:#ffffff;stroke-width:24.189;stroke-linecap:round;stroke-miterlimit:4;stroke-dasharray:none;stroke-opacity:1"
       id="rect2178"
       width="1192.6154"
       height="986.3736"
       x="-71.736267"
       y="-98.63736" /></g><g
     id="g1760"
     inkscape:groupmode="layer"
     inkscape:label="manual de imagen serendipia completoooo"
     transform="matrix(1.3333333,0,0,1.3333333,0,2.04e-5)"><g
       id="g1762"><g
         id="g1764"><path
           d="M 112.266,395.172 H 695.652"
           style="fill:none;stroke:#808080;stroke-width:2.83465;stroke-linecap:butt;stroke-linejoin:miter;stroke-miterlimit:4;stroke-dasharray:none;stroke-opacity:1"
           id="path1766" /></g><text
         transform="translate(116.28884,471.05259)"
         style="font-variant:normal;font-weight:normal;font-size:61px;font-family:'Century Gothic';-inkscape-font-specification:CenturyGothic;writing-mode:lr-tb;fill:#808080;fill-opacity:1;fill-rule:nonzero;stroke:none"
         id="text1770"><tspan
           x="0 56.055664 97.725098 134.92676 172.00928 213.67871 225.89062 242.77879 284.56738 324.21143 341.09961 353.31152 410.52881 452.19824 493.24216 532.88623"
           y="0"
           sodipodi:role="line"
           id="tspan1768">Manual de imagen</tspan></text><g
         id="g1772"><g
           id="g1774" /><g
           id="g1880"><g
             clip-path="url(#clipPath1778)"
             opacity="0.15"
             id="g1878"><g
               id="g1822"><path
                 d="m 681.07,551.461 c 17.125,-24.68 11.082,-57.949 -13.511,-74.359 -24.594,-16.414 -58.446,-9.774 -75.668,14.843 -17.223,24.614 -11.309,57.91 13.218,74.418 24.528,16.508 58.403,9.992 75.719,-14.558"
                 style="fill:#0000ff;fill-opacity:1;fill-rule:evenodd;stroke:none"
                 id="path1816" /><path
                 d="m 715.625,483.199 c 17.129,-24.679 11.082,-57.949 -13.512,-74.359 -24.59,-16.414 -58.445,-9.774 -75.668,14.844 -17.218,24.613 -11.304,57.91 13.219,74.418 24.527,16.507 58.406,9.992 75.723,-14.559"
                 style="fill:#ff0000;fill-opacity:1;fill-rule:evenodd;stroke:none"
                 id="path1818" /><path
                 d="m 755.66,551.688 c 17.129,-24.68 11.086,-57.95 -13.508,-74.364 -24.593,-16.41 -58.449,-9.769 -75.668,14.848 -17.222,24.613 -11.308,57.91 13.219,74.418 24.527,16.504 58.402,9.992 75.719,-14.563"
                 style="fill:#00f900;fill-opacity:1;fill-rule:evenodd;stroke:none"
                 id="path1820" /></g><g
               id="g1838"><g
                 clip-path="url(#clipPath1782)"
                 id="g1836"><g
                   clip-path="url(#clipPath1786)"
                   id="g1834"><g
                     id="g1832"><g
                       id="g1830"><g
                         clip-path="url(#clipPath1790)"
                         id="g1828"><g
                           id="g1826"><path
                             d="m 681.07,551.461 c 17.125,-24.68 11.082,-57.949 -13.511,-74.359 -24.594,-16.414 -58.446,-9.774 -75.668,14.843 -17.223,24.614 -11.309,57.91 13.218,74.418 24.528,16.508 58.403,9.992 75.719,-14.558"
                             style="fill:#00ffff;fill-opacity:1;fill-rule:evenodd;stroke:none"
                             id="path1824" /></g></g></g></g></g></g></g><g
               id="g1854"><g
                 clip-path="url(#clipPath1794)"
                 id="g1852"><g
                   clip-path="url(#clipPath1798)"
                   id="g1850"><g
                     id="g1848"><g
                       id="g1846"><g
                         clip-path="url(#clipPath1802)"
                         id="g1844"><g
                           id="g1842"><path
                             d="m 715.625,483.199 c 17.129,-24.679 11.082,-57.949 -13.512,-74.359 -24.59,-16.414 -58.445,-9.774 -75.668,14.844 -17.218,24.613 -11.304,57.91 13.219,74.418 24.527,16.507 58.406,9.992 75.723,-14.559"
                             style="fill:#ff00ff;fill-opacity:1;fill-rule:evenodd;stroke:none"
                             id="path1840" /></g></g></g></g></g></g></g><g
               id="g1870"><g
                 clip-path="url(#clipPath1806)"
                 id="g1868"><g
                   clip-path="url(#clipPath1810)"
                   id="g1866"><g
                     id="g1864"><g
                       id="g1862"><g
                         clip-path="url(#clipPath1814)"
                         id="g1860"><g
                           id="g1858"><path
                             d="m 715.625,483.199 c 17.129,-24.679 11.082,-57.949 -13.512,-74.359 -24.59,-16.414 -58.445,-9.774 -75.668,14.844 -17.218,24.613 -11.304,57.91 13.219,74.418 24.527,16.507 58.406,9.992 75.723,-14.559"
                             style="fill:#ffff00;fill-opacity:1;fill-rule:evenodd;stroke:none"
                             id="path1856" /></g></g></g></g></g></g></g><g
               id="g1876"><g
                 transform="matrix(0.575137,1,-0.916391,0.52705,0,0)"
                 id="g1874"><path
                   d="m 654.82,-325.174 c 0,0 11.335,-4.438 20.827,-1.205 0,0 -1.62,15.05 -10.303,24.076 0,0 -8.168,-9.478 -10.524,-22.871 z"
                   style="fill:#ffffff;fill-opacity:1;fill-rule:nonzero;stroke:#ffffff;stroke-width:0.841843;stroke-linecap:butt;stroke-linejoin:miter;stroke-miterlimit:4;stroke-dasharray:none;stroke-opacity:1"
                   id="path1872" /></g></g></g></g></g><path
         d="m 500.371,297.227 c 1.184,-13.247 -8.43,-24.719 -21.484,-25.645 -13.059,-0.926 -24.625,9.047 -25.856,22.289 -1.23,13.238 8.34,24.75 21.387,25.727 13.051,0.976 24.656,-8.953 25.937,-22.188"
         style="fill:#0000ff;fill-opacity:1;fill-rule:evenodd;stroke:none"
         id="path1882" /><path
         d="m 498.711,263.398 c 1.18,-13.246 -8.434,-24.718 -21.488,-25.64 -13.055,-0.926 -24.621,9.043 -25.852,22.285 -1.234,13.242 8.336,24.75 21.387,25.727 13.051,0.976 24.652,-8.95 25.933,-22.188"
         style="fill:#ff0000;fill-opacity:1;fill-rule:evenodd;stroke:none"
         id="path1884" /><path
         d="m 529.113,280.969 c 1.18,-13.242 -8.433,-24.715 -21.488,-25.641 -13.055,-0.926 -24.621,9.047 -25.852,22.285 -1.23,13.242 8.336,24.754 21.387,25.731 13.051,0.976 24.653,-8.953 25.934,-22.188"
         style="fill:#00f900;fill-opacity:1;fill-rule:evenodd;stroke:none"
         id="path1886" /></g><g
       id="g1888"><g
         id="g1890"
         clip-path="url(#clipPath1894)"><g
           id="g1896"
           clip-path="url(#clipPath1900)"><g
             id="g1902"><g
               id="g1904"><g
                 id="g1906"
                 clip-path="url(#clipPath1910)"><g
                   id="g1912"><path
                     d="m 500.371,297.227 c 1.184,-13.247 -8.43,-24.719 -21.484,-25.645 -13.059,-0.926 -24.625,9.047 -25.856,22.289 -1.23,13.238 8.34,24.75 21.387,25.727 13.051,0.976 24.656,-8.953 25.937,-22.188"
                     style="fill:#00ffff;fill-opacity:1;fill-rule:evenodd;stroke:none"
                     id="path1914" /></g></g></g></g></g></g></g><g
       id="g1916"><g
         id="g1918"
         clip-path="url(#clipPath1922)"><g
           id="g1924"
           clip-path="url(#clipPath1928)"><g
             id="g1930"><g
               id="g1932"><g
                 id="g1934"
                 clip-path="url(#clipPath1938)"><g
                   id="g1940"><path
                     d="m 498.711,263.398 c 1.18,-13.246 -8.434,-24.718 -21.488,-25.64 -13.055,-0.926 -24.621,9.043 -25.852,22.285 -1.234,13.242 8.336,24.75 21.387,25.727 13.051,0.976 24.652,-8.95 25.933,-22.188"
                     style="fill:#ff00ff;fill-opacity:1;fill-rule:evenodd;stroke:none"
                     id="path1942" /></g></g></g></g></g></g></g><g
       id="g1944"><g
         id="g1946"
         clip-path="url(#clipPath1950)"><g
           id="g1952"
           clip-path="url(#clipPath1956)"><g
             id="g1958"><g
               id="g1960"><g
                 id="g1962"
                 clip-path="url(#clipPath1966)"><g
                   id="g1968"><path
                     d="m 498.711,263.398 c 1.18,-13.246 -8.434,-24.718 -21.488,-25.64 -13.055,-0.926 -24.621,9.043 -25.852,22.285 -1.234,13.242 8.336,24.75 21.387,25.727 13.051,0.976 24.652,-8.95 25.933,-22.188"
                     style="fill:#ffff00;fill-opacity:1;fill-rule:evenodd;stroke:none"
                     id="path1970" /></g></g></g></g></g></g></g><g
       id="g1972"><g
         id="g1974"
         transform="matrix(1,0.587424,-0.53831,0.916391,0,0)"><path
           d="m 478.074,-9.114 c 0,0 4.989,-1.958 9.171,-0.533 0,0 -0.715,6.626 -4.536,10.602 0,0 -3.598,-4.173 -4.635,-10.069 z"
           style="fill:#ffffff;fill-opacity:1;fill-rule:nonzero;stroke:#ffffff;stroke-width:0.370657;stroke-linecap:butt;stroke-linejoin:miter;stroke-miterlimit:4;stroke-dasharray:none;stroke-opacity:1"
           id="path1976" /></g><g
         id="g1978"><g
           id="g1980" /><g
           id="g2070"><g
             clip-path="url(#clipPath1984)"
             opacity="0.631373"
             id="g2068"><g
               id="g2066"><text
                 transform="translate(282.88301,367.58833)"
                 style="font-variant:normal;font-weight:normal;font-size:45.2921px;font-family:'Century Gothic';-inkscape-font-specification:CenturyGothic;writing-mode:lr-tb;fill:#000000;fill-opacity:1;fill-rule:nonzero;stroke:none"
                 id="text1988"><tspan
                   x="0"
                   y="0"
                   id="tspan1986">S</tspan></text><g
                 id="g1992"><path
                   d="m 283.477,361.527 2.765,-1.656 c 1.946,3.586 4.196,5.375 6.75,5.375 1.094,0 2.117,-0.254 3.078,-0.766 0.957,-0.507 1.688,-1.191 2.188,-2.046 0.5,-0.852 0.75,-1.758 0.75,-2.719 0,-1.094 -0.371,-2.16 -1.11,-3.203 -1.023,-1.446 -2.882,-3.188 -5.578,-5.219 -2.711,-2.051 -4.398,-3.535 -5.062,-4.453 -1.149,-1.531 -1.719,-3.188 -1.719,-4.969 0,-1.414 0.336,-2.707 1.016,-3.875 0.675,-1.164 1.629,-2.082 2.859,-2.75 1.227,-0.676 2.566,-1.016 4.016,-1.016 1.531,0 2.961,0.383 4.297,1.141 1.343,0.762 2.757,2.164 4.25,4.203 l -2.657,2 c -1.23,-1.613 -2.277,-2.676 -3.14,-3.187 -0.856,-0.52 -1.793,-0.782 -2.813,-0.782 -1.312,0 -2.387,0.399 -3.219,1.188 -0.835,0.793 -1.25,1.773 -1.25,2.937 0,0.711 0.145,1.399 0.438,2.063 0.301,0.668 0.844,1.391 1.625,2.172 0.426,0.406 1.828,1.492 4.203,3.25 2.813,2.074 4.738,3.922 5.781,5.547 1.051,1.625 1.578,3.258 1.578,4.89 0,2.356 -0.898,4.403 -2.687,6.141 -1.793,1.742 -3.969,2.609 -6.531,2.609 -1.981,0 -3.778,-0.527 -5.391,-1.578 -1.605,-1.051 -3.086,-2.816 -4.437,-5.297 z"
                   style="fill:none;stroke:#000000;stroke-width:0.840235;stroke-linecap:butt;stroke-linejoin:miter;stroke-miterlimit:4;stroke-dasharray:none;stroke-opacity:1"
                   id="path1990" /></g><text
                 transform="translate(305.44061,367.58833)"
                 style="font-variant:normal;font-weight:normal;font-size:45.2921px;font-family:'Century Gothic';-inkscape-font-specification:CenturyGothic;writing-mode:lr-tb;fill:#000000;fill-opacity:1;fill-rule:nonzero;stroke:none"
                 id="text1996"><tspan
                   x="0"
                   y="0"
                   id="tspan1994">e</tspan></text><g
                 id="g2000"><path
                   d="m 329.145,359.605 2.609,1.375 c -0.856,1.68 -1.844,3.032 -2.969,4.063 -1.117,1.031 -2.375,1.82 -3.781,2.359 -1.399,0.539 -2.981,0.813 -4.75,0.813 -3.918,0 -6.984,-1.285 -9.203,-3.86 -2.211,-2.57 -3.313,-5.484 -3.313,-8.734 0,-3.051 0.938,-5.769 2.813,-8.156 2.375,-3.039 5.551,-4.563 9.531,-4.563 4.102,0 7.379,1.559 9.828,4.672 1.738,2.199 2.617,4.946 2.641,8.235 h -21.625 c 0.062,2.793 0.953,5.086 2.672,6.875 1.726,1.793 3.859,2.687 6.39,2.687 1.227,0 2.422,-0.211 3.578,-0.641 1.157,-0.425 2.141,-0.992 2.954,-1.703 0.812,-0.707 1.687,-1.847 2.625,-3.422 z m 0,-6.484 c -0.407,-1.644 -1.008,-2.961 -1.797,-3.953 -0.793,-0.988 -1.84,-1.785 -3.141,-2.391 -1.293,-0.601 -2.652,-0.906 -4.078,-0.906 -2.367,0 -4.391,0.762 -6.078,2.281 -1.242,1.106 -2.18,2.762 -2.813,4.969 z"
                   style="fill:none;stroke:#000000;stroke-width:0.840235;stroke-linecap:butt;stroke-linejoin:miter;stroke-miterlimit:4;stroke-dasharray:none;stroke-opacity:1"
                   id="path1998" /></g><text
                 transform="translate(334.87607,367.58833)"
                 style="font-variant:normal;font-weight:normal;font-size:45.2921px;font-family:'Century Gothic';-inkscape-font-specification:CenturyGothic;writing-mode:lr-tb;fill:#000000;fill-opacity:1;fill-rule:nonzero;stroke:none"
                 id="text2004"><tspan
                   x="0"
                   y="0"
                   id="tspan2002">r</tspan></text><g
                 id="g2008"><path
                   d="m 337.156,343.527 h 3.157 v 3.516 c 0.945,-1.383 1.941,-2.422 2.984,-3.109 1.051,-0.688 2.144,-1.032 3.281,-1.032 0.852,0 1.766,0.278 2.735,0.828 l -1.61,2.61 c -0.648,-0.281 -1.195,-0.422 -1.64,-0.422 -1.032,0 -2.028,0.43 -2.985,1.281 -0.961,0.844 -1.687,2.156 -2.187,3.938 -0.387,1.367 -0.578,4.136 -0.578,8.312 v 8.141 h -3.157 z"
                   style="fill:none;stroke:#000000;stroke-width:0.840235;stroke-linecap:butt;stroke-linejoin:miter;stroke-miterlimit:4;stroke-dasharray:none;stroke-opacity:1"
                   id="path2006" /></g><text
                 transform="translate(348.49909,367.58833)"
                 style="font-variant:normal;font-weight:normal;font-size:45.2921px;font-family:'Century Gothic';-inkscape-font-specification:CenturyGothic;writing-mode:lr-tb;fill:#000000;fill-opacity:1;fill-rule:nonzero;stroke:none"
                 id="text2012"><tspan
                   x="0"
                   y="0"
                   id="tspan2010">e</tspan></text><g
                 id="g2016"><path
                   d="m 372.203,359.605 2.61,1.375 c -0.856,1.68 -1.844,3.032 -2.969,4.063 -1.117,1.031 -2.375,1.82 -3.781,2.359 -1.399,0.539 -2.981,0.813 -4.75,0.813 -3.918,0 -6.985,-1.285 -9.204,-3.86 -2.211,-2.57 -3.312,-5.484 -3.312,-8.734 0,-3.051 0.937,-5.769 2.812,-8.156 2.375,-3.039 5.551,-4.563 9.532,-4.563 4.101,0 7.379,1.559 9.828,4.672 1.738,2.199 2.617,4.946 2.64,8.235 h -21.625 c 0.063,2.793 0.954,5.086 2.672,6.875 1.727,1.793 3.86,2.687 6.391,2.687 1.226,0 2.422,-0.211 3.578,-0.641 1.156,-0.425 2.141,-0.992 2.953,-1.703 0.813,-0.707 1.688,-1.847 2.625,-3.422 z m 0,-6.484 c -0.406,-1.644 -1.008,-2.961 -1.797,-3.953 -0.793,-0.988 -1.84,-1.785 -3.14,-2.391 -1.293,-0.601 -2.653,-0.906 -4.078,-0.906 -2.368,0 -4.391,0.762 -6.079,2.281 -1.242,1.106 -2.179,2.762 -2.812,4.969 z"
                   style="fill:none;stroke:#000000;stroke-width:0.840235;stroke-linecap:butt;stroke-linejoin:miter;stroke-miterlimit:4;stroke-dasharray:none;stroke-opacity:1"
                   id="path2014" /></g><text
                 transform="translate(377.93455,367.58833)"
                 style="font-variant:normal;font-weight:normal;font-size:45.2921px;font-family:'Century Gothic';-inkscape-font-specification:CenturyGothic;writing-mode:lr-tb;fill:#000000;fill-opacity:1;fill-rule:nonzero;stroke:none"
                 id="text2020"><tspan
                   x="0"
                   y="0"
                   id="tspan2018">n</tspan></text><g
                 id="g2024"><path
                   d="m 381.387,343.527 h 3.093 v 4.313 c 1.239,-1.656 2.61,-2.891 4.11,-3.703 1.508,-0.821 3.148,-1.235 4.922,-1.235 1.789,0 3.383,0.461 4.781,1.375 1.395,0.918 2.422,2.153 3.078,3.703 0.664,1.543 1,3.95 1,7.219 v 12.391 h -3.078 v -11.485 c 0,-2.769 -0.117,-4.617 -0.344,-5.546 -0.375,-1.594 -1.074,-2.789 -2.094,-3.594 -1.011,-0.801 -2.335,-1.203 -3.968,-1.203 -1.875,0 -3.555,0.621 -5.032,1.859 -1.48,1.242 -2.46,2.774 -2.937,4.594 -0.293,1.199 -0.438,3.383 -0.438,6.547 v 8.828 h -3.093 z"
                   style="fill:none;stroke:#000000;stroke-width:0.840235;stroke-linecap:butt;stroke-linejoin:miter;stroke-miterlimit:4;stroke-dasharray:none;stroke-opacity:1"
                   id="path2022" /></g><text
                 transform="translate(405.55655,367.58833)"
                 style="font-variant:normal;font-weight:normal;font-size:45.2921px;font-family:'Century Gothic';-inkscape-font-specification:CenturyGothic;writing-mode:lr-tb;fill:#000000;fill-opacity:1;fill-rule:nonzero;stroke:none"
                 id="text2028"><tspan
                   x="0"
                   y="0"
                   id="tspan2026">d</tspan></text><g
                 id="g2032"><path
                   d="m 433.023,334.23 v 33.36 h -3.046 v -4.141 c -1.305,1.586 -2.762,2.778 -4.375,3.578 -1.618,0.789 -3.383,1.188 -5.297,1.188 -3.407,0 -6.321,-1.235 -8.735,-3.703 -2.406,-2.477 -3.609,-5.485 -3.609,-9.016 0,-3.469 1.211,-6.43 3.641,-8.891 2.437,-2.468 5.367,-3.703 8.796,-3.703 1.969,0 3.754,0.422 5.36,1.266 1.601,0.844 3.008,2.105 4.219,3.781 V 334.23 Z m -12.39,11.657 c -1.719,0 -3.313,0.429 -4.781,1.281 -1.461,0.844 -2.622,2.039 -3.485,3.578 -0.855,1.531 -1.281,3.152 -1.281,4.859 0,1.7 0.43,3.325 1.297,4.875 0.875,1.543 2.047,2.747 3.515,3.61 1.469,0.855 3.04,1.281 4.719,1.281 1.696,0 3.301,-0.426 4.813,-1.281 1.519,-0.852 2.687,-2.008 3.5,-3.469 0.82,-1.457 1.234,-3.101 1.234,-4.937 0,-2.782 -0.918,-5.11 -2.75,-6.985 -1.836,-1.875 -4.094,-2.812 -6.781,-2.812 z"
                   style="fill:none;stroke:#000000;stroke-width:0.840235;stroke-linecap:butt;stroke-linejoin:miter;stroke-miterlimit:4;stroke-dasharray:none;stroke-opacity:1"
                   id="path2030" /></g><text
                 transform="translate(436.58431,367.58833)"
                 style="font-variant:normal;font-weight:normal;font-size:45.2921px;font-family:'Century Gothic';-inkscape-font-specification:CenturyGothic;writing-mode:lr-tb;fill:#000000;fill-opacity:1;fill-rule:nonzero;stroke:none"
                 id="text2036"><tspan
                   x="0"
                   y="0"
                   id="tspan2034">i</tspan></text><g
                 id="g2040"><path
                   d="m 441.117,333.621 c 0.707,0 1.313,0.25 1.813,0.75 0.5,0.5 0.75,1.106 0.75,1.813 0,0.687 -0.25,1.289 -0.75,1.796 -0.5,0.5 -1.106,0.75 -1.813,0.75 -0.687,0 -1.289,-0.25 -1.797,-0.75 -0.5,-0.507 -0.75,-1.109 -0.75,-1.796 0,-0.707 0.25,-1.313 0.75,-1.813 0.508,-0.5 1.11,-0.75 1.797,-0.75 z m -1.547,9.906 h 3.125 v 24.063 h -3.125 z"
                   style="fill:none;stroke:#000000;stroke-width:0.840235;stroke-linecap:butt;stroke-linejoin:miter;stroke-miterlimit:4;stroke-dasharray:none;stroke-opacity:1"
                   id="path2038" /></g><text
                 transform="translate(445.65158,367.58833)"
                 style="font-variant:normal;font-weight:normal;font-size:45.2921px;font-family:'Century Gothic';-inkscape-font-specification:CenturyGothic;writing-mode:lr-tb;fill:#000000;fill-opacity:1;fill-rule:nonzero;stroke:none"
                 id="text2044"><tspan
                   x="0"
                   y="0"
                   id="tspan2042">p</tspan></text><g
                 id="g2048"><path
                   d="m 449.152,343.527 h 3.063 v 4.422 c 1.226,-1.676 2.64,-2.937 4.234,-3.781 1.594,-0.844 3.367,-1.266 5.328,-1.266 3.414,0 6.336,1.235 8.766,3.703 2.437,2.461 3.656,5.422 3.656,8.891 0,3.531 -1.203,6.539 -3.609,9.016 -2.406,2.468 -5.313,3.703 -8.719,3.703 -1.918,0 -3.683,-0.399 -5.297,-1.188 -1.605,-0.8 -3.058,-1.992 -4.359,-3.578 v 12.938 h -3.063 z m 12.375,2.36 c -2.679,0 -4.937,0.937 -6.781,2.812 -1.836,1.875 -2.75,4.203 -2.75,6.985 0,1.836 0.406,3.48 1.219,4.937 0.82,1.461 1.992,2.617 3.515,3.469 1.532,0.855 3.145,1.281 4.844,1.281 1.664,0 3.235,-0.426 4.703,-1.281 1.469,-0.863 2.633,-2.067 3.5,-3.61 0.875,-1.55 1.313,-3.175 1.313,-4.875 0,-1.707 -0.434,-3.328 -1.297,-4.859 -0.867,-1.539 -2.027,-2.734 -3.484,-3.578 -1.461,-0.852 -3.055,-1.281 -4.782,-1.281 z"
                   style="fill:none;stroke:#000000;stroke-width:0.840235;stroke-linecap:butt;stroke-linejoin:miter;stroke-miterlimit:4;stroke-dasharray:none;stroke-opacity:1"
                   id="path2046" /></g><text
                 transform="translate(476.54665,367.58833)"
                 style="font-variant:normal;font-weight:normal;font-size:45.2921px;font-family:'Century Gothic';-inkscape-font-specification:CenturyGothic;writing-mode:lr-tb;fill:#000000;fill-opacity:1;fill-rule:nonzero;stroke:none"
                 id="text2052"><tspan
                   x="0"
                   y="0"
                   id="tspan2050">i</tspan></text><g
                 id="g2056"><path
                   d="m 481.078,333.621 c 0.707,0 1.313,0.25 1.813,0.75 0.5,0.5 0.75,1.106 0.75,1.813 0,0.687 -0.25,1.289 -0.75,1.796 -0.5,0.5 -1.106,0.75 -1.813,0.75 -0.687,0 -1.289,-0.25 -1.797,-0.75 -0.5,-0.507 -0.75,-1.109 -0.75,-1.796 0,-0.707 0.25,-1.313 0.75,-1.813 0.508,-0.5 1.11,-0.75 1.797,-0.75 z m -1.547,9.906 h 3.125 v 24.063 h -3.125 z"
                   style="fill:none;stroke:#000000;stroke-width:0.840235;stroke-linecap:butt;stroke-linejoin:miter;stroke-miterlimit:4;stroke-dasharray:none;stroke-opacity:1"
                   id="path2054" /></g><text
                 transform="translate(485.61392,367.58833)"
                 style="font-variant:normal;font-weight:normal;font-size:45.2921px;font-family:'Century Gothic';-inkscape-font-specification:CenturyGothic;writing-mode:lr-tb;fill:#000000;fill-opacity:1;fill-rule:nonzero;stroke:none"
                 id="text2060"><tspan
                   x="0"
                   y="0"
                   id="tspan2058">a</tspan></text><g
                 id="g2064"><path
                   d="m 513.035,343.527 v 24.063 h -3.047 v -4.141 c -1.304,1.586 -2.761,2.778 -4.375,3.578 -1.617,0.789 -3.383,1.188 -5.297,1.188 -3.406,0 -6.32,-1.235 -8.734,-3.703 -2.406,-2.477 -3.609,-5.485 -3.609,-9.016 0,-3.469 1.218,-6.43 3.656,-8.891 2.437,-2.468 5.363,-3.703 8.781,-3.703 1.977,0 3.766,0.422 5.36,1.266 1.601,0.844 3.007,2.105 4.218,3.781 v -4.422 z m -12.375,2.36 c -1.73,0 -3.324,0.429 -4.781,1.281 -1.461,0.844 -2.621,2.039 -3.484,3.578 -0.868,1.531 -1.297,3.152 -1.297,4.859 0,1.7 0.429,3.325 1.297,4.875 0.875,1.543 2.046,2.747 3.515,3.61 1.469,0.855 3.039,1.281 4.719,1.281 1.695,0 3.305,-0.426 4.828,-1.281 1.52,-0.852 2.688,-2.008 3.5,-3.469 0.82,-1.457 1.234,-3.101 1.234,-4.937 0,-2.782 -0.921,-5.11 -2.765,-6.985 -1.836,-1.875 -4.09,-2.812 -6.766,-2.812 z"
                   style="fill:none;stroke:#000000;stroke-width:0.840235;stroke-linecap:butt;stroke-linejoin:miter;stroke-miterlimit:4;stroke-dasharray:none;stroke-opacity:1"
                   id="path2062" /></g></g></g></g></g><g
         id="g2072"
         transform="matrix(1,0.775245,-0.775245,1,0,0)"><path
           d="m 347.687,26.367 c -45.516,-1.139 -82.901,-36.313 -86.809,-81.678 -3.905,-45.363 26.913,-86.411 71.567,-95.318 44.651,-8.904 88.859,17.183 102.653,60.572"
           style="fill:none;stroke:#737373;stroke-width:2.74672;stroke-linecap:round;stroke-linejoin:miter;stroke-miterlimit:4;stroke-dasharray:none;stroke-opacity:1"
           id="path2074" /></g><g
         id="g2076"
         transform="matrix(-1,-0.81611,0.81611,-1,0,0)"><path
           d="m -333.97,-25.389 -8.079,8.078 8.08,8.078"
           style="fill:none;stroke:#737373;stroke-width:2.69258;stroke-linecap:round;stroke-linejoin:miter;stroke-miterlimit:4;stroke-dasharray:none;stroke-opacity:1"
           id="path2078" /></g><g
         id="g2080"
         transform="matrix(0.366922,-1,1,0.366922,0,0)"><path
           d="m -45.66,515.171 -9.788,9.787 9.788,9.792"
           style="fill:none;stroke:#737373;stroke-width:3.26275;stroke-linecap:round;stroke-linejoin:miter;stroke-miterlimit:4;stroke-dasharray:none;stroke-opacity:1"
           id="path2082" /></g><path
         d="m 325.098,280.68 -13.118,16.082 15.454,-0.594 z"
         style="fill:#737373;fill-opacity:1;fill-rule:nonzero;stroke:none"
         id="path2084" /><path
         d="m 498.902,233.02 19.707,7.226 -13.671,7.317 z"
         style="fill:#737373;fill-opacity:1;fill-rule:nonzero;stroke:none"
         id="path2086" /><path
         d="m 329.324,233.199 c 0,0 -15.824,24.508 6.438,43.434 0,0 4.004,5.601 1.773,8.035 0,0 -3.832,6.047 0.672,11.664 0,0 2.723,15.547 0.309,18.641 0,0 3.695,10.582 27.172,3.918 l 0.816,-5.301 -6.188,-4.828 c 0,0 -2.168,-5.719 -0.8,-7.012 0,0 8.351,4.727 12.007,10.816 0,0 11.426,7.809 27.422,0.934 0,0 0.305,-4.98 -3.535,-4.422 0,0 -8.609,-1.574 -10.496,-5.453 0,0 -5.262,-8.133 -2.492,-12.047 0,0 26.199,-20.726 35.898,-22.453 0,0 22.606,0.633 22.575,-21.992 0,0 4.355,-1.043 4.804,-11.18 0,0 -4.031,-4.601 -4.469,-6.777 0,0 -2.718,-3.903 -4.035,-4.438 0,0 -7.269,-13.679 -6.672,-23.144 0,0 3.809,-23.184 -9.625,-30.547 l -24.214,-14.488 c 0,0 -5.485,-0.317 -7.063,2.632 0,0 -32.164,-3.894 -36.117,18.454 0,0 -9.668,12.539 -10.145,17.683 0,0 -14.394,32.867 -14.035,37.871 z"
         style="fill:#666666;fill-opacity:1;fill-rule:nonzero;stroke:none"
         id="path2088" /><path
         d="m 402.477,149.008 c 0,0 -2.606,-9.863 1.402,-16.629 9.375,-19.031 43.797,-8.676 37.773,13.5 -0.605,4.133 -6.996,9.953 -4.683,13.215 -0.293,2.265 -3.52,1.246 -4.125,2.914 -0.489,1.555 -0.739,3.199 -2.262,3.863 0,0 0.156,0.606 0.012,0.969 -0.145,0.363 -0.551,0.715 -0.824,0.879 -2.391,6.465 -5.899,4.652 -9.711,2.308 0,0 -1.489,-1.273 -2.782,0.114 l -20.043,-10.77 1.512,-6.039 z"
         style="fill:#666666;fill-opacity:1;fill-rule:nonzero;stroke:none"
         id="path2090" /><path
         d="m 399.414,156.727 c 0,0 -0.601,0.691 -2.707,1.546 -2.102,0.856 21.859,13.965 21.859,13.965 0,0 -0.378,-2.715 0.493,-4.148 0.871,-1.43 4.035,-4.504 4.035,-4.504 z"
         style="fill:#666666;fill-opacity:1;fill-rule:nonzero;stroke:none"
         id="path2092" /><path
         d="m 400.672,151.152 c -0.117,-0.004 -6.512,6.727 -6.512,6.727 l 6.121,-0.063 z"
         style="fill:#666666;fill-opacity:1;fill-rule:nonzero;stroke:none"
         id="path2094" /><path
         d="m 384.543,223.133 c 0,0 7.766,-8.488 14.375,-9.242 6.609,-0.758 13.387,-7.625 13.387,-7.625 0,0 8.64,19.062 9.992,21.218 0,0 -6.641,1.93 -6.254,5 z"
         style="fill:#ffffff;fill-opacity:1;fill-rule:nonzero;stroke:none"
         id="path2096" /></g></g></svg>
